<svg width="101" height="105" viewBox="0 0 101 105" fill="none" xmlns="http://www.w3.org/2000/svg">
<path d="M90.6177 52.5948C90.5992 62.8555 86.6967 72.7339 79.6854 80.2675C72.6742 87.8011 63.0672 92.4387 52.773 93.259C42.4788 94.0793 32.2507 91.0222 24.1206 84.6951C15.9905 78.368 10.5533 69.2339 8.8891 59.1072C7.22494 48.9806 9.4556 38.6025 15.138 30.0347C20.8203 21.4669 29.5385 15.3362 39.5607 12.8607C49.5829 10.3851 60.1756 11.7458 69.2345 16.6725C78.2934 21.5991 85.1557 29.7311 88.4581 39.4531C89.893 43.6877 90.6225 48.1266 90.6177 52.5948Z" fill="#F93052"/>
<path d="M88.4504 39.4454L36.0656 91.5005C31.1983 89.8655 26.683 87.3375 22.7542 84.0477C22.9233 83.8415 23.0924 83.6506 23.2845 83.4597L79.635 27.4721C80.0627 27.0478 80.54 26.6761 81.0569 26.3649C84.3083 30.2374 86.8145 34.6715 88.4504 39.4454Z" fill="#F15A24"/>
<path d="M72.0494 18.3165C71.911 18.4768 71.7727 18.6295 71.6113 18.7823L15.2685 74.7699C15.1148 74.9226 14.961 75.06 14.7996 75.2051C11.8333 70.7569 9.77558 65.7728 8.74342 60.5362L57.2316 12.3069C62.5203 13.3234 67.5555 15.3655 72.0494 18.3165Z" fill="#F15A24"/>
<path d="M99.7405 47.9367C97.9979 59.7243 92.0459 70.4959 82.9716 78.2843C73.8972 86.0727 62.306 90.3582 50.3146 90.3582C38.3233 90.3582 26.732 86.0727 17.6577 78.2843C8.58333 70.4959 2.63138 59.7243 0.888794 47.9367C0.536622 50.339 0.359394 52.7634 0.35849 55.191C0.35849 68.3548 5.62171 80.9795 14.9903 90.2878C24.3589 99.596 37.0654 104.825 50.3146 104.825C63.5638 104.825 76.2704 99.596 85.639 90.2878C95.0076 80.9795 100.271 68.3548 100.271 55.191C100.27 52.7634 100.093 50.339 99.7405 47.9367Z" fill="#ED1C24"/>
<path d="M50.3146 15.4835C57.1549 15.4835 63.8416 17.4988 69.529 21.2746C75.2165 25.0504 79.6494 30.417 82.267 36.6959C84.8847 42.9748 85.5696 49.8839 84.2351 56.5495C82.9006 63.2151 79.6067 69.3379 74.7699 74.1436C69.9331 78.9492 63.7707 82.2219 57.0618 83.5478C50.353 84.8737 43.3991 84.1932 37.0795 81.5924C30.7599 78.9916 25.3585 74.5873 21.5582 68.9364C17.758 63.2856 15.7296 56.642 15.7296 49.8458C15.7398 40.7354 19.3868 32.0011 25.8706 25.5591C32.3543 19.1171 41.1452 15.4936 50.3146 15.4835ZM50.3146 0.211365C40.4342 0.211365 30.7757 3.12237 22.5605 8.57627C14.3452 14.0302 7.94223 21.782 4.16117 30.8515C0.380104 39.921 -0.609193 49.9008 1.31838 59.529C3.24594 69.1571 8.0038 78.0011 14.9903 84.9426C21.9768 91.8841 30.8781 96.6113 40.5687 98.5265C50.2592 100.442 60.3037 99.4587 69.432 95.702C78.5603 91.9453 86.3624 85.5835 91.8516 77.4212C97.3409 69.2588 100.271 59.6625 100.271 49.8458C100.271 36.6819 95.0075 24.0572 85.639 14.7489C76.2704 5.44069 63.5638 0.211365 50.3146 0.211365V0.211365Z" fill="#F7931E"/>
<path d="M50.6989 84.9717C31.2775 84.9717 13.9927 77.4196 2.96388 65.683C6.26857 75.4193 12.533 83.8966 20.8929 89.9452C29.2528 95.9939 39.296 99.3156 49.6367 99.4522C59.9774 99.5888 70.1059 96.5335 78.6247 90.7078C87.1434 84.8821 93.6325 76.5732 97.1965 66.9277C86.1601 77.9541 69.4209 84.9717 50.6989 84.9717Z" fill="#F15A24"/>
<path d="M39.2167 40.4534C39.2167 37.8555 37.097 35.7496 34.4824 35.7496C31.8677 35.7496 29.7481 37.8555 29.7481 40.4534C29.7481 43.0512 31.8677 45.1572 34.4824 45.1572C37.097 45.1572 39.2167 43.0512 39.2167 40.4534Z" fill="#C1272D"/>
<path d="M68.7431 44.9417C70.8179 44.9993 72.5468 43.3765 72.6047 41.3172C72.6626 39.2579 71.0275 37.5418 68.9527 37.4842L47.6336 36.8925C45.5588 36.8349 43.8299 38.4577 43.772 40.517C43.7141 42.5764 45.3491 44.2925 47.424 44.35L68.7431 44.9417Z" fill="#C1272D"/>
<path d="M38.2406 39.3844C38.2406 36.7865 36.121 34.6805 33.5063 34.6805C30.8916 34.6805 28.772 36.7865 28.772 39.3844C28.772 41.9822 30.8916 44.0882 33.5063 44.0882C36.121 44.0882 38.2406 41.9822 38.2406 39.3844Z" fill="white"/>
<path d="M39.2167 53.4348C39.2167 50.8369 37.097 48.731 34.4824 48.731C31.8677 48.731 29.7481 50.8369 29.7481 53.4348C29.7481 56.0326 31.8677 58.1386 34.4824 58.1386C37.097 58.1386 39.2167 56.0326 39.2167 53.4348Z" fill="#C1272D"/>
<path d="M38.2406 52.3656C38.2406 49.7678 36.121 47.6618 33.5063 47.6618C30.8916 47.6618 28.772 49.7678 28.772 52.3656C28.772 54.9635 30.8916 57.0694 33.5063 57.0694C36.121 57.0694 38.2406 54.9635 38.2406 52.3656Z" fill="white"/>
<path d="M39.2167 66.4161C39.2167 63.8182 37.097 61.7123 34.4824 61.7123C31.8677 61.7123 29.7481 63.8182 29.7481 66.4161C29.7481 69.0139 31.8677 71.1199 34.4824 71.1199C37.097 71.1199 39.2167 69.0139 39.2167 66.4161Z" fill="#C1272D"/>
<path d="M38.2406 65.3469C38.2406 62.7491 36.121 60.6431 33.5063 60.6431C30.8916 60.6431 28.772 62.7491 28.772 65.3469C28.772 67.9448 30.8916 70.0507 33.5063 70.0507C36.121 70.0507 38.2406 67.9448 38.2406 65.3469Z" fill="white"/>
<path d="M67.9163 43.4232C69.9911 43.4808 71.72 41.858 71.7779 39.7987C71.8358 37.7394 70.2008 36.0233 68.1259 35.9657L45.9848 35.3512C43.91 35.2936 42.1811 36.9164 42.1232 38.9757C42.0653 41.0351 43.7003 42.7512 45.7751 42.8087L67.9163 43.4232Z" fill="white"/>
<path d="M68.771 57.92C70.8458 57.9775 72.5747 56.3548 72.6326 54.2955C72.6905 52.2361 71.0555 50.52 68.9807 50.4625L47.6385 49.8702C45.5637 49.8126 43.8348 51.4353 43.7769 53.4946C43.719 55.554 45.354 57.2701 47.4288 57.3277L68.771 57.92Z" fill="#C1272D"/>
<path d="M67.9137 56.4084C69.9885 56.466 71.7174 54.8433 71.7753 52.7839C71.8332 50.7246 70.1982 49.0085 68.1234 48.9509L45.9822 48.3364C43.9074 48.2789 42.1785 49.9016 42.1206 51.9609C42.0627 54.0203 43.6977 55.7364 45.7725 55.794L67.9137 56.4084Z" fill="white"/>
<path d="M68.7684 70.9053C70.8432 70.9629 72.5721 69.3402 72.63 67.2808C72.6879 65.2215 71.0529 63.5054 68.9781 63.4478L47.6359 62.8555C45.5611 62.7979 43.8322 64.4207 43.7743 66.48C43.7164 68.5393 45.3514 70.2554 47.4262 70.313L68.7684 70.9053Z" fill="#C1272D"/>
<path d="M67.9111 69.3863C69.9859 69.4439 71.7148 67.8211 71.7727 65.7618C71.8306 63.7024 70.1956 61.9863 68.1208 61.9288L45.9796 61.3143C43.9048 61.2567 42.1759 62.8794 42.118 64.9388C42.0601 66.9981 43.6951 68.7142 45.77 68.7718L67.9111 69.3863Z" fill="white"/>
</svg>
